<?xml version="1.0" standalone="no"?>
<!DOCTYPE svg PUBLIC "-//W3C//DTD SVG 20010904//EN"
 "http://www.w3.org/TR/2001/REC-SVG-20010904/DTD/svg10.dtd">
<svg version="1.0" xmlns="http://www.w3.org/2000/svg"
 width="900.000000pt" height="579.000000pt" viewBox="0 0 900.000000 579.000000"
 preserveAspectRatio="xMidYMid meet">
<metadata>
Created by potrace 1.10, written by Peter Selinger 2001-2011
</metadata>
<g transform="translate(0.000000,579.000000) scale(0.100000,-0.100000)"
fill="#b1dde3" stroke="none">
<path d="M1965 3435 c-5 -1 -30 -8 -55 -16 -41 -12 -124 -62 -176 -106 -39
-33 -100 -128 -124 -193 -35 -93 -33 -190 4 -290 41 -109 42 -130 13 -173 -30
-44 -50 -149 -41 -209 10 -64 75 -196 123 -250 45 -51 160 -122 231 -144 73
-22 167 -18 246 12 128 48 142 51 177 30 100 -58 99 -58 196 -47 60 7 109 19
148 37 122 57 221 170 252 289 9 33 20 65 24 72 14 23 -2 148 -29 218 -41 107
-41 126 -5 185 27 43 31 60 31 118 -1 139 -41 233 -144 337 -39 39 -82 75 -96
81 -14 6 -43 19 -65 29 -48 21 -204 31 -260 17 -22 -6 -65 -20 -95 -31 -71
-27 -77 -27 -145 9 -49 26 -68 30 -129 29 -39 0 -75 -2 -81 -4z m203 -101 c12
-8 22 -21 22 -28 0 -7 -32 -41 -71 -75 -59 -51 -77 -61 -107 -61 -54 0 -109
-41 -144 -106 -20 -38 -25 -143 -8 -175 11 -19 50 -27 50 -10 0 15 390 401
424 418 60 32 131 52 186 52 55 0 151 -26 173 -48 6 -6 16 -11 23 -11 15 0
124 -119 124 -135 0 -7 6 -18 14 -24 33 -28 45 -251 14 -288 -12 -15 -37 -5
-64 26 -12 15 -36 42 -53 61 -20 23 -31 46 -31 65 0 34 -26 91 -56 122 -48 50
-116 70 -198 58 -37 -6 -46 -11 -46 -27 0 -13 72 -93 198 -219 220 -222 211
-212 234 -259 33 -68 42 -143 28 -222 -22 -125 -92 -215 -217 -279 -27 -14
-67 -22 -139 -26 -105 -6 -144 3 -144 34 0 19 106 123 125 123 7 0 37 8 66 17
100 32 149 100 149 206 0 61 -11 87 -35 87 -6 0 -104 -91 -216 -202 -220 -218
-231 -228 -251 -228 -8 0 -25 -8 -38 -17 -37 -26 -214 -24 -267 2 -49 25 -110
72 -146 110 -64 69 -103 213 -83 307 18 89 24 90 100 11 58 -59 66 -73 66
-106 0 -40 30 -97 71 -133 29 -26 100 -54 136 -54 35 0 91 21 97 35 2 7 -89
106 -204 221 -209 210 -228 234 -256 334 -51 177 59 373 246 441 61 22 198 24
228 3z"/>
<path d="M2317 3075 c-57 -71 -204 -219 -241 -243 -33 -20 -47 -23 -87 -18
-67 9 -73 -8 -19 -53 24 -20 87 -81 141 -135 l99 -99 0 -68 c0 -41 4 -69 10
-69 6 0 32 23 58 51 194 211 255 255 316 227 31 -13 54 1 40 24 -5 8 -55 55
-110 106 -150 135 -164 155 -164 235 0 36 -4 68 -8 71 -4 2 -20 -11 -35 -29z
m5 -223 c28 -18 88 -99 87 -117 0 -28 -104 -115 -137 -115 -17 0 -99 85 -107
112 -9 26 21 70 73 106 25 18 49 32 52 32 3 0 17 -8 32 -18z"/>
<path d="M5024 3107 c-11 -5 -40 -30 -66 -55 -34 -33 -49 -56 -53 -83 -6 -36
-8 -38 -38 -33 -18 3 -47 10 -65 16 -19 6 -82 10 -142 9 -85 -1 -120 -5 -161
-21 l-52 -21 -48 20 c-39 17 -72 21 -190 23 l-144 2 -72 -47 c-39 -26 -77 -47
-83 -47 -7 0 -29 13 -49 29 -73 57 -99 66 -186 62 -44 -2 -102 -4 -130 -3
-196 3 -294 0 -321 -8 -16 -6 -50 -31 -74 -55 l-45 -45 -3 -167 c-1 -102 2
-179 8 -199 6 -19 32 -52 57 -74 59 -52 106 -54 172 -10 24 17 47 30 51 30 4
0 27 -13 51 -30 60 -40 112 -40 167 0 46 33 67 37 79 16 14 -23 70 -46 114
-46 31 0 51 8 79 30 21 17 44 30 51 30 8 0 40 -16 72 -36 51 -31 66 -36 125
-36 182 -1 233 3 265 22 38 23 80 26 96 6 17 -21 63 -29 92 -16 35 16 69 36
82 49 17 17 30 14 78 -19 54 -36 105 -39 158 -8 l38 22 42 -22 c48 -25 107
-28 135 -7 28 21 69 19 111 -6 43 -26 73 -20 124 22 43 35 70 37 109 4 63 -53
101 -54 164 -4 43 34 66 36 101 9 14 -11 44 -27 65 -34 38 -14 43 -13 86 10
56 30 88 30 126 3 39 -30 110 -22 149 15 35 34 58 33 107 -4 52 -39 97 -40
155 0 24 16 49 30 55 30 7 0 38 -14 70 -32 56 -30 65 -32 164 -33 l105 0 65
42 c36 23 71 51 78 62 7 12 18 21 25 21 7 0 40 -25 75 -54 59 -53 63 -54 95
-44 17 6 41 17 52 25 27 18 59 16 105 -7 54 -28 64 -26 114 20 44 41 94 124
116 195 7 22 18 49 24 60 15 28 35 105 36 138 0 20 -13 42 -43 73 -54 58 -106
69 -162 34 -38 -23 -63 -23 -122 1 -29 12 -37 11 -62 -4 -38 -22 -63 -22 -103
3 -43 26 -97 25 -153 -2 l-45 -22 -57 24 c-83 35 -185 39 -269 11 -35 -12 -68
-19 -74 -16 -5 3 -14 24 -20 46 -6 22 -27 58 -47 79 -43 49 -90 64 -150 48
-33 -8 -51 -8 -69 1 -14 6 -47 11 -73 11 -65 0 -142 -52 -206 -138 -35 -47
-52 -61 -64 -56 -103 43 -117 46 -221 43 -58 -2 -176 -2 -263 -1 l-159 2 -26
29 c-15 16 -43 46 -63 67 -43 46 -88 66 -115 51z m50 -77 c33 -12 57 -50 50
-77 -3 -12 -21 -29 -40 -38 -30 -14 -36 -14 -64 0 -62 32 -47 99 27 124 1 1
13 -3 27 -9z m1139 -12 c12 -10 14 -21 9 -48 -7 -30 -12 -35 -39 -38 -34 -3
-82 -47 -67 -61 5 -5 25 -11 44 -13 34 -3 35 -4 35 -48 0 -45 0 -45 -40 -50
-38 -5 -40 -6 -39 -40 6 -215 6 -258 0 -268 -8 -13 -66 -16 -103 -6 -22 6 -22
9 -17 103 2 53 7 118 9 144 4 43 2 49 -20 59 -43 20 -43 102 0 118 17 6 25 20
30 50 5 30 16 48 41 68 51 41 124 55 157 30z m172 4 c6 -4 10 -112 10 -287 0
-175 -4 -283 -10 -287 -16 -12 -90 -9 -107 5 -15 11 -16 23 -6 102 5 50 8 174
6 277 -2 119 1 190 7 192 17 7 89 6 100 -2z m881 -180 c8 -20 22 -52 30 -70 8
-18 14 -41 14 -52 0 -10 4 -21 9 -25 13 -8 51 35 51 58 0 10 7 40 16 68 13 38
21 49 38 49 11 0 38 3 58 6 50 9 59 -13 30 -70 -37 -72 -82 -176 -82 -189 0
-6 -7 -21 -15 -31 -8 -11 -15 -29 -15 -41 0 -12 -4 -25 -9 -30 -5 -6 -11 -23
-13 -40 -2 -21 -8 -30 -21 -30 -23 0 -41 31 -87 152 -22 57 -37 60 -59 11 -41
-91 -51 -116 -51 -130 0 -42 -57 -51 -65 -10 -14 66 -47 160 -97 272 -9 19
-19 42 -22 50 -4 8 -13 26 -21 39 -22 40 -10 52 51 47 30 -3 58 -7 62 -10 5
-3 14 -24 21 -48 27 -90 43 -128 54 -128 7 0 25 40 41 89 39 123 51 133 82 63z
m-3949 9 c10 -14 13 -14 32 3 33 30 122 25 167 -9 l35 -27 33 25 c54 42 165
41 211 -1 56 -50 66 -90 63 -252 l-3 -145 -60 0 -60 0 4 143 c3 138 3 144 -20
168 -30 32 -78 32 -108 0 -21 -22 -22 -31 -20 -159 0 -75 -2 -140 -6 -146 -6
-11 -83 -15 -108 -5 -12 4 -13 29 -9 145 5 136 4 140 -18 164 -30 32 -75 33
-107 3 -22 -21 -23 -28 -23 -165 0 -141 0 -143 -23 -149 -13 -3 -41 -4 -62 -2
l-38 3 -1 212 c-1 134 3 214 9 216 23 8 101 -7 112 -22z m923 4 c21 -19 40
-19 40 0 0 12 13 15 60 15 l60 0 0 -210 0 -210 -56 0 c-42 0 -60 4 -69 17 -12
17 -14 17 -35 -2 -17 -16 -36 -19 -94 -19 -67 0 -76 2 -113 32 -57 45 -83 102
-83 182 0 106 56 189 143 211 45 11 126 3 147 -16z m587 -4 c12 -9 23 -20 23
-25 0 -5 6 -17 14 -25 10 -12 15 -60 18 -183 5 -188 10 -177 -72 -174 l-45 1
-3 150 c-3 170 -9 185 -72 185 -29 0 -41 -6 -59 -31 -22 -30 -23 -38 -20 -168
l4 -136 -39 -3 c-22 -2 -50 -1 -63 2 l-23 6 0 210 0 210 56 0 c42 0 60 -4 69
-17 12 -16 15 -17 32 -1 10 9 27 18 38 20 35 8 119 -5 142 -21z m702 -3 c31
-23 46 -23 84 4 43 31 154 30 194 -1 55 -44 60 -64 64 -242 l4 -164 -60 0 -60
0 -3 150 c-3 167 -9 185 -68 185 -23 0 -41 -8 -59 -27 -26 -28 -27 -29 -23
-168 l3 -140 -60 0 -60 0 -3 150 c-3 170 -9 185 -72 185 -29 0 -41 -6 -59 -31
-22 -30 -23 -38 -20 -168 l4 -136 -40 -2 c-92 -3 -85 -20 -85 217 l0 210 60 0
c47 0 60 -3 60 -15 0 -19 24 -19 40 -1 23 29 119 26 159 -6z m1295 -11 c21
-17 51 -49 67 -70 26 -35 29 -48 29 -111 -1 -61 -5 -77 -28 -111 -15 -22 -48
-53 -72 -70 -40 -26 -53 -30 -120 -30 -64 0 -81 4 -115 26 -53 35 -77 64 -98
119 -22 58 -22 88 2 142 33 74 100 133 162 141 71 8 132 -5 173 -36z m-1710
-179 c1 -229 5 -218 -66 -218 -54 0 -53 -5 -52 213 1 111 2 206 3 210 0 4 26
7 58 5 l56 -3 1 -207z"/>
<path d="M4113 2759 c-62 -39 -68 -136 -13 -183 56 -47 96 -46 149 3 27 25 31
36 31 78 -1 52 -14 76 -57 105 -36 23 -70 23 -110 -3z"/>
<path d="M6638 2747 c-40 -30 -43 -37 -45 -82 -3 -53 8 -74 57 -108 75 -52
173 33 154 133 -7 34 -72 90 -105 90 -9 0 -37 -15 -61 -33z"/>
</g>
</svg>
